Coordinates
version=1
nRows=13
nColumns=38
inDegrees=no

Units are S.I. units (second, meters, Newtons, ...)
If the header above contains a line with 'inDegrees', this indicates whether rotational values are in degrees (yes) or radians (no).

endheader
time	pelvis_tilt	pelvis_list	pelvis_rotation	pelvis_tx	pelvis_ty	pelvis_tz	hip_flexion_r	hip_adduction_r	hip_rotation_r	knee_angle_r	ankle_angle_r	subtalar_angle_r	mtp_angle_r	hip_flexion_l	hip_adduction_l	hip_rotation_l	knee_angle_l	ankle_angle_l	subtalar_angle_l	mtp_angle_l	lumbar_extension	lumbar_bending	lumbar_rotation	arm_flex_r	arm_add_r	arm_rot_r	elbow_flex_r	pro_sup_r	wrist_flex_r	wrist_dev_r	arm_flex_l	arm_add_l	arm_rot_l	elbow_flex_l	pro_sup_l	wrist_flex_l	wrist_dev_l
1.36	-0.306582	-0.0212094	-0.0363709	1.02671	1.03609	-0.352026	0.223528	0.0906237	0.178936	-0.771163	-0.154746	0	0	0.689335	0.0153622	-0.0544863	-0.313064	0.192249	0	0	0.0631821	0.0409489	0.233659	-0.365663	-0.29022	0.0209572	2.00651	1.96343	0	0	-0.684552	-0.21238	-0.121527	2.07092	1.79923	0	0
1.37	-0.309261	-0.0192295	-0.0333305	1.02682	1.02953	-0.353275	0.2497	0.0933507	0.181895	-0.840641	-0.139077	0	0	0.696688	0.0203593	-0.0589677	-0.338444	0.17287	0	0	0.06967	0.0378653	0.226169	-0.379826	-0.286687	0.012948	1.98122	1.96136	0	0	-0.673161	-0.206811	-0.121771	2.07077	1.80071	0	0
1.38	-0.307002	-0.0191006	-0.0282491	1.02737	1.02247	-0.354565	0.267031	0.0952757	0.178708	-0.901533	-0.120665	0	0	0.698815	0.0247954	-0.0617347	-0.372246	0.14911	0	0	0.0708039	0.0365059	0.215428	-0.393222	-0.283562	0.00421641	1.95467	1.9536	0	0	-0.660259	-0.201283	-0.120924	2.06868	1.79913	0	0
1.39	-0.317799	-0.0152532	-0.0284893	1.02682	1.01335	-0.355345	0.308354	0.0967535	0.181696	-0.976518	-0.0986038	0	0	0.727874	0.0288457	-0.0674395	-0.432717	0.128706	0	0	0.0873543	0.0317582	0.208897	-0.408833	-0.278306	-0.00830433	1.92483	1.98442	0	0	-0.648937	-0.196944	-0.121854	2.06611	1.81149	0	0
1.4	-0.321018	-0.0118902	-0.025698	1.02612	1.00428	-0.356258	0.342335	0.0957264	0.178352	-1.04845	-0.0780586	0	0	0.754621	0.0378699	-0.0568372	-0.505772	0.133256	0	0	0.0935951	0.026576	0.19839	-0.421098	-0.274086	-0.0201329	1.89165	1.98564	0	0	-0.632907	-0.192744	-0.121412	2.06084	1.81306	0	0
1.41	-0.323349	-0.00760394	-0.0228887	1.02478	0.994865	-0.357011	0.378773	0.0925031	0.173539	-1.12067	-0.0607004	0	0	0.787621	0.050447	-0.0411467	-0.592339	0.163666	0	0	0.0972524	0.0195354	0.186954	-0.430845	-0.269705	-0.0325165	1.8545	1.98239	0	0	-0.613494	-0.189227	-0.120632	2.05285	1.81237	0	0
1.42	-0.326332	-0.00341763	-0.0198318	1.02293	0.985444	-0.357628	0.41875	0.0882736	0.167723	-1.19136	-0.0464459	0	0	0.820779	0.063204	-0.0303384	-0.678516	0.206308	0	0	0.100641	0.0120116	0.175121	-0.439153	-0.264112	-0.0467906	1.8118	1.98873	0	0	-0.590148	-0.186563	-0.118064	2.03946	1.80698	0	0
1.43	-0.328066	0.000638156	-0.0166651	1.0209	0.976667	-0.358163	0.458628	0.083234	0.162068	-1.25758	-0.0326846	0	0	0.844426	0.0736526	-0.0282527	-0.751499	0.248683	0	0	0.101936	0.00438404	0.163937	-0.446167	-0.256789	-0.0620098	1.76207	1.98661	0	0	-0.561454	-0.185184	-0.112214	2.01776	1.80032	0	0
1.44	-0.327578	0.00342939	-0.0144523	1.01889	0.969066	-0.358517	0.496436	0.0800202	0.158194	-1.31743	-0.0179583	0	0	0.855244	0.0810192	-0.0285749	-0.807596	0.285159	0	0	0.100221	-0.00139301	0.154853	-0.452135	-0.248263	-0.0781088	1.70593	1.98381	0	0	-0.526452	-0.184804	-0.102371	1.98604	1.79599	0	0
1.45	-0.328042	0.00534531	-0.0156822	1.01669	0.962539	-0.358481	0.536321	0.079635	0.157714	-1.37116	-0.00147233	0	0	0.859282	0.0850416	-0.0284794	-0.850906	0.31885	0	0	0.0992547	-0.00511582	0.150276	-0.457681	-0.239033	-0.0964969	1.64688	2.00173	0	0	-0.486561	-0.185657	-0.0886242	1.94577	1.79782	0	0
1.46	-0.327943	0.00740605	-0.0207274	1.01436	0.957385	-0.358085	0.576215	0.0815525	0.161127	-1.41797	0.0161921	0	0	0.856365	0.0870621	-0.0276471	-0.883571	0.352311	0	0	0.0969624	-0.00799385	0.149424	-0.461686	-0.230423	-0.116911	1.58797	2.05416	0	0	-0.443536	-0.18673	-0.0731399	1.90009	1.81684	0	0
1.47	-0.325871	0.00955089	-0.0264682	1.01213	0.953809	-0.357672	0.613539	0.084022	0.165402	-1.45686	0.033518	0	0	0.845906	0.0894404	-0.0255067	-0.907275	0.382565	0	0	0.0917924	-0.0106921	0.146766	-0.463211	-0.225796	-0.13019	1.53003	2.06921	0	0	-0.401439	-0.186296	-0.0582571	1.85455	1.82448	0	0
1.48	-0.326163	0.0126308	-0.0331545	1.01007	0.951377	-0.357325	0.652641	0.0859803	0.170723	-1.4876	0.0497018	0	0	0.83235	0.0899377	-0.0296182	-0.92149	0.408736	0	0	0.0895789	-0.0136626	0.142211	-0.465525	-0.223413	-0.145789	1.47985	2.15624	0	0	-0.365243	-0.184778	-0.0471071	1.81502	1.84061	0	0
